<svg xmlns:cc="http://creativecommons.org/ns#" xmlns="http://www.w3.org/2000/svg" xmlns:rdf="http://www.w3.org/1999/02/22-rdf-syntax-ns#" xmlns:svg="http://www.w3.org/2000/svg" xmlns:dc="http://purl.org/dc/elements/1.1/" viewBox="0 0 671.96002 187.30667" height="187.30667" width="671.96002" xml:space="preserve" id="svg2" version="1.1"><metadata id="metadata8"><rdf:RDF><cc:Work rdf:about=""><dc:format>image/svg+xml</dc:format><dc:type rdf:resource="http://purl.org/dc/dcmitype/StillImage"/></cc:Work></rdf:RDF></metadata><defs id="defs6"><clipPath id="clipPath20" clipPathUnits="userSpaceOnUse"><path id="path18" d="M 0,1404.79 V 0 h 5039.69 v 1404.79 z"/></clipPath><clipPath id="clipPath30" clipPathUnits="userSpaceOnUse"><path id="path28" d="m 547.82,1071.78 c 18.633,18.2 27.965,40.95 27.965,68.31 0,27.31 -9.332,50.09 -27.965,68.29 -18.605,18.19 -41.172,27.32 -67.632,27.32 -26.497,0 -49.075,-9.13 -67.688,-27.32 -18.609,-18.2 -27.914,-40.98 -27.914,-68.29 0,-27.36 9.305,-50.11 27.914,-68.31 18.613,-18.2 41.191,-27.3 67.688,-27.3 26.46,0 49.027,9.1 67.632,27.3 z M 722.973,358.5 c 18.351,-31.531 49.476,-47.27 93.382,-47.27 43.875,0 75.016,15.739 93.395,47.27 18.355,31.5 27.539,81.242 27.539,149.082 0,67.832 -9.184,117.523 -27.539,149.074 -18.379,31.504 -49.52,47.254 -93.395,47.254 -43.906,0 -75.031,-15.75 -93.382,-47.254 -18.371,-31.551 -27.539,-81.242 -27.539,-149.074 0,-67.84 9.168,-117.582 27.539,-149.082 z M 1376.16,702.766 C 1376.16,331.48 1075.17,30.5 703.895,30.5 388.305,30.5 123.633,247.988 51.2891,541.285 182.852,542.75 307.621,572.164 420.266,623.531 v 261.645 c 0,20.73 -7.207,35.902 -21.567,45.484 -14.375,9.559 -39.929,14.367 -76.644,14.367 v 24.196 c 48.711,1.64 93.332,4.504 133.941,8.593 40.637,4.102 75.688,10.227 105.082,18.422 V 703.52 c 0.215,0.132 0.426,0.296 0.61,0.433 v -87.699 c 0,-21.543 0,-45.066 0,-70.574 0,-24.766 -0.372,-49.102 -1.184,-73.02 -0.793,-23.953 -1.984,-46.277 -3.613,-67.031 -1.578,-20.738 -3.578,-38.289 -5.95,-52.66 39.918,-23.117 84.247,-42.258 132.981,-57.449 48.719,-15.11 94.246,-22.75 136.574,-22.75 35.949,0 70.672,5.421 104.231,16.191 33.57,10.801 63.316,26.559 89.273,47.348 25.97,20.769 46.94,46.332 62.92,76.695 15.99,30.379 23.96,64.734 23.96,103.113 0,35.137 -6,67.512 -17.98,97.082 -12.03,29.559 -28.8,55.137 -50.43,76.707 -21.6,21.574 -47.173,38.539 -76.755,50.946 -29.629,12.375 -62.008,18.589 -97.184,18.589 -26.418,0 -53.398,-4.636 -80.992,-13.894 -27.633,-9.238 -52.613,-20.734 -74.988,-34.371 v 113.133 c 121.066,126.488 206.265,287.551 239.09,467.021 -149.864,63.67 -323.5,71.95 -487.739,9.6 C 271.426,1231.67 137.98,1089.52 74.0625,920.191 135.609,1102.46 275.172,1256.78 469.063,1330.4 c 161.871,61.47 330.992,56.06 478.675,-1.64 0.02,0.15 0.067,0.3 0.067,0.44 250.675,-97.67 428.355,-341.227 428.355,-626.434 z"/></clipPath><linearGradient id="linearGradient40" spreadMethod="pad" gradientTransform="matrix(769.567,-1099.06,-1099.06,-769.567,319.971,1251.08)" gradientUnits="userSpaceOnUse" y2="0" x2="1" y1="0" x1="0"><stop id="stop32" offset="0" style="stop-opacity:1;stop-color:#51bbed"/><stop id="stop34" offset="0.308989" style="stop-opacity:1;stop-color:#51bbed"/><stop id="stop36" offset="0.898876" style="stop-opacity:1;stop-color:#18468b"/><stop id="stop38" offset="1" style="stop-opacity:1;stop-color:#18468b"/></linearGradient><clipPath id="clipPath50" clipPathUnits="userSpaceOnUse"><path id="path48" d="M 0,1404.79 V 0 h 5039.69 v 1404.79 z"/></clipPath></defs><g transform="matrix(1.3333333,0,0,-1.3333333,0,187.30667)" id="g10"><g transform="scale(0.1)" id="g12"><g id="g14"><g clip-path="url(#clipPath20)" id="g16"><path id="path22" style="fill:#ffffff;fill-opacity:1;fill-rule:nonzero;stroke:none" d="M 1404.79,702.398 C 1404.79,314.48 1090.3,0 702.387,0 314.48,0 0,314.48 0,702.398 c 0,387.922 314.48,702.392 702.387,702.392 387.913,0 702.403,-314.47 702.403,-702.392"/></g></g><g id="g24"><g clip-path="url(#clipPath30)" id="g26"><path id="path42" style="fill:url(#linearGradient40);fill-opacity:1;fill-rule:nonzero;stroke:none" d="m 547.82,1071.78 c 18.633,18.2 27.965,40.95 27.965,68.31 0,27.31 -9.332,50.09 -27.965,68.29 -18.605,18.19 -41.172,27.32 -67.632,27.32 -26.497,0 -49.075,-9.13 -67.688,-27.32 -18.609,-18.2 -27.914,-40.98 -27.914,-68.29 0,-27.36 9.305,-50.11 27.914,-68.31 18.613,-18.2 41.191,-27.3 67.688,-27.3 26.46,0 49.027,9.1 67.632,27.3 z M 722.973,358.5 c 18.351,-31.531 49.476,-47.27 93.382,-47.27 43.875,0 75.016,15.739 93.395,47.27 18.355,31.5 27.539,81.242 27.539,149.082 0,67.832 -9.184,117.523 -27.539,149.074 -18.379,31.504 -49.52,47.254 -93.395,47.254 -43.906,0 -75.031,-15.75 -93.382,-47.254 -18.371,-31.551 -27.539,-81.242 -27.539,-149.074 0,-67.84 9.168,-117.582 27.539,-149.082 z M 1376.16,702.766 C 1376.16,331.48 1075.17,30.5 703.895,30.5 388.305,30.5 123.633,247.988 51.2891,541.285 182.852,542.75 307.621,572.164 420.266,623.531 v 261.645 c 0,20.73 -7.207,35.902 -21.567,45.484 -14.375,9.559 -39.929,14.367 -76.644,14.367 v 24.196 c 48.711,1.64 93.332,4.504 133.941,8.593 40.637,4.102 75.688,10.227 105.082,18.422 V 703.52 c 0.215,0.132 0.426,0.296 0.61,0.433 v -87.699 c 0,-21.543 0,-45.066 0,-70.574 0,-24.766 -0.372,-49.102 -1.184,-73.02 -0.793,-23.953 -1.984,-46.277 -3.613,-67.031 -1.578,-20.738 -3.578,-38.289 -5.95,-52.66 39.918,-23.117 84.247,-42.258 132.981,-57.449 48.719,-15.11 94.246,-22.75 136.574,-22.75 35.949,0 70.672,5.421 104.231,16.191 33.57,10.801 63.316,26.559 89.273,47.348 25.97,20.769 46.94,46.332 62.92,76.695 15.99,30.379 23.96,64.734 23.96,103.113 0,35.137 -6,67.512 -17.98,97.082 -12.03,29.559 -28.8,55.137 -50.43,76.707 -21.6,21.574 -47.173,38.539 -76.755,50.946 -29.629,12.375 -62.008,18.589 -97.184,18.589 -26.418,0 -53.398,-4.636 -80.992,-13.894 -27.633,-9.238 -52.613,-20.734 -74.988,-34.371 v 113.133 c 121.066,126.488 206.265,287.551 239.09,467.021 -149.864,63.67 -323.5,71.95 -487.739,9.6 C 271.426,1231.67 137.98,1089.52 74.0625,920.191 135.609,1102.46 275.172,1256.78 469.063,1330.4 c 161.871,61.47 330.992,56.06 478.675,-1.64 0.02,0.15 0.067,0.3 0.067,0.44 250.675,-97.67 428.355,-341.227 428.355,-626.434"/></g></g><g id="g44"><g clip-path="url(#clipPath50)" id="g46"><path id="path52" style="fill:#ffffff;fill-opacity:1;fill-rule:nonzero;stroke:none" d="m 1608.41,1008.75 h 30.1602 v 198.34 H 1608.41 Z"/><path id="path54" style="fill:#ffffff;fill-opacity:1;fill-rule:nonzero;stroke:none" d="m 1771.62,1008.75 v 90.46 c 0,14.61 -9.01,29.54 -32.64,29.54 -22.69,0 -33.89,-14.93 -33.89,-29.54 v -90.46 h -28.28 v 140.82 h 24.86 l 1.25,-13.98 c 10.88,11.81 21.45,17.4 43.52,17.4 30.78,0 53.47,-19.58 53.47,-50.98 v -93.26 h -28.29"/><path id="path56" style="fill:#ffffff;fill-opacity:1;fill-rule:nonzero;stroke:none" d="m 1916.81,1126.88 h -44.77 v -78.34 c 0,-11.5 9.33,-17.72 20.83,-17.72 5.9,0 11.19,0.62 15.54,2.17 l -5.59,-25.18 c -3.11,-0.93 -7.16,-1.24 -12.75,-1.24 -25.49,0 -46.01,14.92 -46.01,42.9 v 77.41 h -27.67 v 22.69 h 27.67 v 28.61 l 27.98,14.6 v -43.21 h 49.74 l -4.97,-22.69"/><path id="path58" style="fill:#ffffff;fill-opacity:1;fill-rule:nonzero;stroke:none" d="m 1999.18,1128.75 c -17.72,0 -36.68,-13.99 -40.42,-33.58 h 70.88 c 0.32,1.24 0.32,2.49 0.32,3.73 0,13.99 -12.13,29.85 -30.78,29.85 z m 58.45,-40.73 -15.86,-15.86 h -84.87 c 0.93,-17.4 17.1,-41.96 50.05,-41.96 18.03,0 32.02,4.97 45.08,14.3 l -7.15,-30.16 c -9.95,-5.28 -22.7,-9.01 -41.66,-9.01 -40.1,0 -75.54,29.84 -75.54,73.67 0,47.88 37.31,73.99 69.95,73.99 38.85,0 60.93,-27.35 60.93,-53.47 0,-4.35 -0.31,-8.39 -0.93,-11.5"/><path id="path60" style="fill:#ffffff;fill-opacity:1;fill-rule:nonzero;stroke:none" d="m 2162.71,1127.5 c -22.7,0 -50.06,-12.12 -50.06,-52.23 v -66.52 h -28.29 v 140.82 h 26.74 l 1.24,-22.07 c 7.46,17.41 26.74,23.94 47.87,23.94 l 5.29,-23.94 c -1.24,0 -1.86,0 -2.79,0"/><path id="path62" style="fill:#ffffff;fill-opacity:1;fill-rule:nonzero;stroke:none" d="m 2282.08,1008.75 v 90.46 c 0,14.61 -9.02,29.54 -32.65,29.54 -22.69,0 -33.88,-14.93 -33.88,-29.54 v -90.46 h -28.29 v 140.82 h 24.87 l 1.24,-13.98 c 10.88,11.81 21.45,17.4 43.52,17.4 30.78,0 53.48,-19.58 53.48,-50.98 v -93.26 h -28.29"/><path id="path64" style="fill:#ffffff;fill-opacity:1;fill-rule:nonzero;stroke:none" d="m 2411.4,1073.41 -27.98,-2.49 c -16.78,-1.56 -24.25,-12.44 -24.25,-22.69 0,-9.95 8.39,-18.97 19.59,-18.97 14.92,0 32.64,13.99 32.64,31.71 z m 26.11,-68.08 c -9.63,2.17 -17.41,9.32 -20.51,18.03 -9.95,-13.06 -24.25,-18.03 -39.49,-18.03 -27.97,0 -45.39,20.51 -45.39,43.21 0,27.35 22.39,42.9 46.33,45.07 l 32.95,3.11 v 9.02 c 0,12.74 -7.46,23.01 -27.36,23.01 -13.99,0 -28.6,-4.36 -38.86,-11.2 l -5.6,23.32 c 12.75,8.39 28.92,12.12 46.02,12.12 31.4,0 54.09,-17.72 54.09,-50.98 v -56.89 c 0,-12.74 6.84,-20.21 15.86,-21.76 l -18.04,-18.03"/><path id="path66" style="fill:#ffffff;fill-opacity:1;fill-rule:nonzero;stroke:none" d="m 2560,1126.88 h -44.77 v -78.34 c 0,-11.5 9.33,-17.72 20.83,-17.72 5.9,0 11.19,0.62 15.55,2.17 l -5.61,-25.18 c -3.1,-0.93 -7.15,-1.24 -12.74,-1.24 -25.49,0 -46.01,14.92 -46.01,42.9 v 77.41 h -27.67 v 22.69 h 27.67 v 28.61 l 27.98,14.6 v -43.21 h 49.74 l -4.97,-22.69"/><path id="path68" style="fill:#ffffff;fill-opacity:1;fill-rule:nonzero;stroke:none" d="m 2592.02,1008.75 v 140.82 h 28.59 v -140.82 z m 14.29,167.87 c -5.59,0 -17.1,11.5 -17.1,17.09 0,5.92 11.51,17.42 17.1,17.42 5.91,0 17.42,-11.5 17.42,-17.42 0,-5.59 -11.51,-17.09 -17.42,-17.09"/><path id="path70" style="fill:#ffffff;fill-opacity:1;fill-rule:nonzero;stroke:none" d="m 2723.2,1128.12 c -24.87,0 -46.32,-19.58 -46.32,-49.12 0,-29.22 21.45,-48.8 46.32,-48.8 24.56,0 46.01,19.58 46.01,48.8 0,29.54 -21.45,49.12 -46.01,49.12 z m 0,-122.79 c -41.96,0 -74.92,30.15 -74.92,73.67 0,43.84 32.96,73.99 74.92,73.99 41.97,0 74.61,-30.15 74.61,-73.99 0,-43.52 -32.64,-73.67 -74.61,-73.67"/><path id="path72" style="fill:#ffffff;fill-opacity:1;fill-rule:nonzero;stroke:none" d="m 2913.45,1008.75 v 90.46 c 0,14.61 -9.01,29.54 -32.63,29.54 -22.7,0 -33.89,-14.93 -33.89,-29.54 v -90.46 h -28.29 v 140.82 h 24.87 l 1.24,-13.98 c 10.88,11.81 21.45,17.4 43.53,17.4 30.77,0 53.46,-19.58 53.46,-50.98 v -93.26 h -28.29"/><path id="path74" style="fill:#ffffff;fill-opacity:1;fill-rule:nonzero;stroke:none" d="m 3045.58,1073.41 -27.98,-2.49 c -16.78,-1.56 -24.25,-12.44 -24.25,-22.69 0,-9.95 8.39,-18.97 19.58,-18.97 14.93,0 32.65,13.99 32.65,31.71 z m 26.11,-68.08 c -9.63,2.17 -17.41,9.32 -20.51,18.03 -9.95,-13.06 -24.25,-18.03 -39.49,-18.03 -27.97,0 -45.39,20.51 -45.39,43.21 0,27.35 22.39,42.9 46.32,45.07 l 32.96,3.11 v 9.02 c 0,12.74 -7.46,23.01 -27.36,23.01 -13.99,0 -28.6,-4.36 -38.86,-11.2 l -5.6,23.32 c 12.75,8.39 28.92,12.12 46.02,12.12 31.4,0 54.09,-17.72 54.09,-50.98 v -56.89 c 0,-12.74 6.84,-20.21 15.85,-21.76 l -18.03,-18.03"/><path id="path76" style="fill:#ffffff;fill-opacity:1;fill-rule:nonzero;stroke:none" d="m 3145.69,1003.15 c -9.33,2.49 -27.98,11.81 -27.98,38.86 v 188.08 h 28.28 v -184.35 c 0,-13.06 10.26,-21.76 18.97,-23.32 l -19.27,-19.27"/><path id="path78" style="fill:#ffffff;fill-opacity:1;fill-rule:nonzero;stroke:none" d="m 3325.98,1103.87 h -28.29 v -69.63 h 28.29 c 20.83,0 40.42,10.57 40.42,34.82 0,23.62 -19.59,34.81 -40.42,34.81 z m -7.77,77.72 h -20.52 v -52.23 h 20.52 c 16.17,0 30.15,7.46 30.15,25.81 0,18.65 -13.98,26.42 -30.15,26.42 z m 13.99,-172.84 h -64.35 v 198.34 h 55.34 c 26.42,0 55.64,-17.11 55.64,-51.92 0,-14.61 -6.83,-29.84 -18.34,-34.82 18.34,-5.29 36.68,-25.8 36.68,-51.29 0,-41.04 -34.2,-60.31 -64.97,-60.31"/><path id="path80" style="fill:#ffffff;fill-opacity:1;fill-rule:nonzero;stroke:none" d="m 3494.49,1073.41 -27.98,-2.49 c -16.79,-1.56 -24.25,-12.44 -24.25,-22.69 0,-9.95 8.39,-18.97 19.58,-18.97 14.92,0 32.65,13.99 32.65,31.71 z m 26.11,-68.08 c -9.64,2.17 -17.41,9.32 -20.52,18.03 -9.95,-13.06 -24.25,-18.03 -39.48,-18.03 -27.98,0 -45.39,20.51 -45.39,43.21 0,27.35 22.38,42.9 46.32,45.07 l 32.96,3.11 v 9.02 c 0,12.74 -7.46,23.01 -27.37,23.01 -13.98,0 -28.59,-4.36 -38.85,-11.2 l -5.6,23.32 c 12.75,8.39 28.92,12.12 46.02,12.12 31.39,0 54.09,-17.72 54.09,-50.98 v -56.89 c 0,-12.74 6.83,-20.21 15.85,-21.76 l -18.03,-18.03"/><path id="path82" style="fill:#ffffff;fill-opacity:1;fill-rule:nonzero;stroke:none" d="m 3670.75,1117.55 c -12.75,8.09 -24.25,10.57 -37.93,10.57 -25.8,0 -49.74,-18.65 -49.74,-49.12 0,-30.15 24.56,-48.8 50.36,-48.8 13.06,0 24.56,2.48 40.41,9.94 l -5.9,-27.66 c -10.26,-4.67 -23,-7.15 -37,-7.15 -38.54,0 -76.47,27.66 -76.47,73.67 0,46.33 37.93,73.99 76.47,73.99 18.65,0 33.27,-4.04 45.08,-10.57 l -5.28,-24.87"/><path id="path84" style="fill:#ffffff;fill-opacity:1;fill-rule:nonzero;stroke:none" d="m 3801.67,1117.55 c -12.75,8.09 -24.25,10.57 -37.93,10.57 -25.81,0 -49.74,-18.65 -49.74,-49.12 0,-30.15 24.56,-48.8 50.36,-48.8 13.06,0 24.56,2.48 40.41,9.94 l -5.9,-27.66 c -10.26,-4.67 -23.01,-7.15 -37,-7.15 -38.54,0 -76.47,27.66 -76.47,73.67 0,46.33 37.93,73.99 76.47,73.99 18.65,0 33.27,-4.04 45.08,-10.57 l -5.28,-24.87"/><path id="path86" style="fill:#ffffff;fill-opacity:1;fill-rule:nonzero;stroke:none" d="m 3905.49,1073.41 -27.98,-2.49 c -16.78,-1.56 -24.24,-12.44 -24.24,-22.69 0,-9.95 8.39,-18.97 19.58,-18.97 14.92,0 32.64,13.99 32.64,31.71 z m 26.12,-68.08 c -9.64,2.17 -17.42,9.32 -20.52,18.03 -9.95,-13.06 -24.25,-18.03 -39.48,-18.03 -27.98,0 -45.39,20.51 -45.39,43.21 0,27.35 22.38,42.9 46.31,45.07 l 32.96,3.11 v 9.02 c 0,12.74 -7.46,23.01 -27.36,23.01 -13.98,0 -28.59,-4.36 -38.86,-11.2 l -5.59,23.32 c 12.74,8.39 28.91,12.12 46.01,12.12 31.4,0 54.09,-17.72 54.09,-50.98 v -56.89 c 0,-12.74 6.84,-20.21 15.85,-21.76 l -18.02,-18.03"/><path id="path88" style="fill:#ffffff;fill-opacity:1;fill-rule:nonzero;stroke:none" d="m 4008.39,1003.15 c -9.32,2.49 -27.97,11.81 -27.97,38.86 v 188.08 h 28.28 v -184.35 c 0,-13.06 10.26,-21.76 18.96,-23.32 l -19.27,-19.27"/><path id="path90" style="fill:#ffffff;fill-opacity:1;fill-rule:nonzero;stroke:none" d="m 4129.63,1073.41 -27.97,-2.49 c -16.79,-1.56 -24.25,-12.44 -24.25,-22.69 0,-9.95 8.39,-18.97 19.58,-18.97 14.92,0 32.64,13.99 32.64,31.71 z m 26.12,-68.08 c -9.64,2.17 -17.42,9.32 -20.52,18.03 -9.95,-13.06 -24.25,-18.03 -39.48,-18.03 -27.98,0 -45.39,20.51 -45.39,43.21 0,27.35 22.38,42.9 46.31,45.07 l 32.96,3.11 v 9.02 c 0,12.74 -7.46,23.01 -27.36,23.01 -13.98,0 -28.59,-4.36 -38.86,-11.2 l -5.59,23.32 c 12.74,8.39 28.91,12.12 46.01,12.12 31.4,0 54.09,-17.72 54.09,-50.98 v -56.89 c 0,-12.74 6.84,-20.21 15.85,-21.76 l -18.02,-18.03"/><path id="path92" style="fill:#ffffff;fill-opacity:1;fill-rule:nonzero;stroke:none" d="m 4293.77,1008.75 -1.24,13.98 c -10.87,-11.81 -21.44,-17.4 -43.52,-17.4 -30.77,0 -53.47,19.58 -53.47,50.98 v 93.26 h 28.29 v -90.46 c 0,-14.61 9.02,-29.54 32.64,-29.54 22.7,0 33.89,14.93 33.89,29.54 v 90.46 h 28.29 v -140.82 h -24.88"/><path id="path94" style="fill:#ffffff;fill-opacity:1;fill-rule:nonzero;stroke:none" d="m 4433.35,1127.5 c -22.69,0 -50.04,-12.12 -50.04,-52.23 v -66.52 h -28.3 v 140.82 h 26.74 l 1.24,-22.07 c 7.46,17.41 26.74,23.94 47.88,23.94 l 5.29,-23.94 c -1.24,0 -1.87,0 -2.81,0"/><path id="path96" style="fill:#ffffff;fill-opacity:1;fill-rule:nonzero;stroke:none" d="m 4515.11,1128.75 c -17.72,0 -36.68,-13.99 -40.41,-33.58 h 70.88 c 0.31,1.24 0.31,2.49 0.31,3.73 0,13.99 -12.13,29.85 -30.78,29.85 z m 58.45,-40.73 -15.86,-15.86 h -84.86 c 0.92,-17.4 17.09,-41.96 50.05,-41.96 18.02,0 32.02,4.97 45.07,14.3 l -7.14,-30.16 c -9.96,-5.28 -22.7,-9.01 -41.66,-9.01 -40.11,0 -75.55,29.84 -75.55,73.67 0,47.88 37.3,73.99 69.95,73.99 38.86,0 60.93,-27.35 60.93,-53.47 0,-4.35 -0.32,-8.39 -0.93,-11.5"/><path id="path98" style="fill:#ffffff;fill-opacity:1;fill-rule:nonzero;stroke:none" d="m 4673.63,1073.41 -27.98,-2.49 c -16.79,-1.56 -24.25,-12.44 -24.25,-22.69 0,-9.95 8.39,-18.97 19.58,-18.97 14.92,0 32.65,13.99 32.65,31.71 z m 26.11,-68.08 c -9.64,2.17 -17.41,9.32 -20.52,18.03 -9.95,-13.06 -24.24,-18.03 -39.48,-18.03 -27.98,0 -45.39,20.51 -45.39,43.21 0,27.35 22.38,42.9 46.32,45.07 l 32.96,3.11 v 9.02 c 0,12.74 -7.46,23.01 -27.37,23.01 -13.98,0 -28.59,-4.36 -38.85,-11.2 l -5.6,23.32 c 12.75,8.39 28.92,12.12 46.02,12.12 31.39,0 54.09,-17.72 54.09,-50.98 v -56.89 c 0,-12.74 6.83,-20.21 15.85,-21.76 l -18.03,-18.03"/><path id="path100" style="fill:#ffffff;fill-opacity:1;fill-rule:nonzero;stroke:none" d="m 4822.22,1126.88 h -44.76 v -78.34 c 0,-11.5 9.32,-17.72 20.83,-17.72 5.89,0 11.19,0.62 15.53,2.17 l -5.59,-25.18 c -3.11,-0.93 -7.15,-1.24 -12.75,-1.24 -25.48,0 -46,14.92 -46,42.9 v 77.41 h -27.68 v 22.69 h 27.68 v 28.61 l 27.98,14.6 v -43.21 h 49.73 l -4.97,-22.69"/><path id="path102" style="fill:#ffffff;fill-opacity:1;fill-rule:nonzero;stroke:none" d="m 4902.42,1128.75 c -17.73,0 -36.68,-13.99 -40.41,-33.58 h 70.88 c 0.31,1.24 0.31,2.49 0.31,3.73 0,13.99 -12.13,29.85 -30.78,29.85 z m 58.44,-40.73 -15.86,-15.86 h -84.86 c 0.93,-17.4 17.09,-41.96 50.05,-41.96 18.03,0 32.02,4.97 45.08,14.3 l -7.15,-30.16 c -9.95,-5.28 -22.7,-9.01 -41.66,-9.01 -40.11,0 -75.55,29.84 -75.55,73.67 0,47.88 37.31,73.99 69.95,73.99 38.86,0 60.93,-27.35 60.93,-53.47 0,-4.35 -0.31,-8.39 -0.93,-11.5"/><path id="path104" style="fill:#ffffff;fill-opacity:1;fill-rule:nonzero;stroke:none" d="m 1661.88,746.355 h -28.28 v -69.632 h 28.28 c 20.83,0 40.42,10.566 40.42,34.82 0,23.625 -19.59,34.812 -40.42,34.812 z m -7.76,77.723 h -20.52 v -52.226 h 20.52 c 16.16,0 30.15,7.461 30.15,25.804 0,18.653 -13.99,26.422 -30.15,26.422 z m 13.99,-172.848 h -64.36 v 198.34 h 55.34 c 26.42,0 55.65,-17.097 55.65,-51.914 0,-14.613 -6.84,-29.847 -18.35,-34.82 18.35,-5.285 36.69,-25.805 36.69,-51.293 0,-41.039 -34.2,-60.313 -64.97,-60.313"/><path id="path106" style="fill:#ffffff;fill-opacity:1;fill-rule:nonzero;stroke:none" d="m 1830.39,715.895 -27.98,-2.489 c -16.79,-1.554 -24.26,-12.433 -24.26,-22.691 0,-9.953 8.4,-18.965 19.59,-18.965 14.93,0 32.65,13.988 32.65,31.707 z m 26.11,-68.082 c -9.64,2.171 -17.41,9.328 -20.52,18.027 -9.95,-13.059 -24.25,-18.027 -39.48,-18.027 -27.98,0 -45.39,20.515 -45.39,43.207 0,27.359 22.38,42.906 46.32,45.078 l 32.96,3.113 v 9.012 c 0,12.75 -7.47,23.007 -27.36,23.007 -13.99,0 -28.61,-4.351 -38.86,-11.191 l -5.6,23.316 c 12.75,8.395 28.92,12.122 46.01,12.122 31.4,0 54.09,-17.719 54.09,-50.985 v -56.89 c 0,-12.743 6.84,-20.204 15.86,-21.762 l -18.03,-18.027"/><path id="path108" style="fill:#ffffff;fill-opacity:1;fill-rule:nonzero;stroke:none" d="m 2006.65,760.039 c -12.74,8.082 -24.25,10.57 -37.92,10.57 -25.81,0 -49.75,-18.656 -49.75,-49.121 0,-30.156 24.56,-48.808 50.37,-48.808 13.05,0 24.56,2.488 40.41,9.949 l -5.91,-27.668 c -10.26,-4.664 -23,-7.148 -36.99,-7.148 -38.55,0 -76.48,27.664 -76.48,73.675 0,46.321 37.93,73.989 76.48,73.989 18.65,0 33.26,-4.039 45.08,-10.571 l -5.29,-24.867"/><path id="path110" style="fill:#ffffff;fill-opacity:1;fill-rule:nonzero;stroke:none" d="m 2137.56,760.039 c -12.75,8.082 -24.25,10.57 -37.93,10.57 -25.8,0 -49.74,-18.656 -49.74,-49.121 0,-30.156 24.56,-48.808 50.36,-48.808 13.06,0 24.56,2.488 40.42,9.949 l -5.91,-27.668 c -10.26,-4.664 -23,-7.148 -36.99,-7.148 -38.55,0 -76.48,27.664 -76.48,73.675 0,46.321 37.93,73.989 76.48,73.989 18.65,0 33.26,-4.039 45.08,-10.571 l -5.29,-24.867"/><path id="path112" style="fill:#ffffff;fill-opacity:1;fill-rule:nonzero;stroke:none" d="m 2241.4,715.895 -27.98,-2.489 c -16.79,-1.554 -24.25,-12.433 -24.25,-22.691 0,-9.953 8.39,-18.965 19.58,-18.965 14.93,0 32.65,13.988 32.65,31.707 z m 26.11,-68.082 c -9.64,2.171 -17.41,9.328 -20.52,18.027 -9.95,-13.059 -24.25,-18.027 -39.48,-18.027 -27.98,0 -45.39,20.515 -45.39,43.207 0,27.359 22.38,42.906 46.32,45.078 l 32.96,3.113 v 9.012 c 0,12.75 -7.46,23.007 -27.36,23.007 -13.99,0 -28.61,-4.351 -38.86,-11.191 l -5.6,23.316 c 12.75,8.395 28.92,12.122 46.01,12.122 31.4,0 54.09,-17.719 54.09,-50.985 v -56.89 c 0,-12.743 6.84,-20.204 15.86,-21.762 l -18.03,-18.027"/><path id="path114" style="fill:#ffffff;fill-opacity:1;fill-rule:nonzero;stroke:none" d="m 2344.29,645.637 c -9.32,2.484 -27.98,11.808 -27.98,38.859 v 188.082 h 28.29 V 688.227 c 0,-13.059 10.26,-21.762 18.97,-23.321 l -19.28,-19.269"/><path id="path116" style="fill:#ffffff;fill-opacity:1;fill-rule:nonzero;stroke:none" d="m 2465.53,715.895 -27.98,-2.489 c -16.78,-1.554 -24.25,-12.433 -24.25,-22.691 0,-9.953 8.39,-18.965 19.59,-18.965 14.93,0 32.64,13.988 32.64,31.707 z m 26.12,-68.082 c -9.64,2.171 -17.42,9.328 -20.52,18.027 -9.95,-13.059 -24.25,-18.027 -39.48,-18.027 -27.98,0 -45.4,20.515 -45.4,43.207 0,27.359 22.39,42.906 46.33,45.078 l 32.95,3.113 v 9.012 c 0,12.75 -7.46,23.007 -27.36,23.007 -13.99,0 -28.6,-4.351 -38.86,-11.191 l -5.59,23.316 c 12.74,8.395 28.91,12.122 46.01,12.122 31.4,0 54.08,-17.719 54.08,-50.985 v -56.89 c 0,-12.743 6.85,-20.204 15.86,-21.762 l -18.02,-18.027"/><path id="path118" style="fill:#ffffff;fill-opacity:1;fill-rule:nonzero;stroke:none" d="m 2629.67,651.23 -1.24,13.989 c -10.88,-11.813 -21.44,-17.406 -43.52,-17.406 -30.77,0 -53.47,19.585 -53.47,50.98 v 93.27 h 28.29 v -90.469 c 0,-14.614 9.02,-29.531 32.64,-29.531 22.69,0 33.88,14.917 33.88,29.531 v 90.469 h 28.3 V 651.23 h -24.88"/><path id="path120" style="fill:#ffffff;fill-opacity:1;fill-rule:nonzero;stroke:none" d="m 2769.25,769.984 c -22.69,0 -50.05,-12.125 -50.05,-52.226 V 651.23 h -28.29 v 140.833 h 26.74 l 1.24,-22.079 c 7.46,17.414 26.74,23.942 47.88,23.942 l 5.29,-23.942 c -1.24,0 -1.87,0 -2.81,0"/><path id="path122" style="fill:#ffffff;fill-opacity:1;fill-rule:nonzero;stroke:none" d="m 2847.91,815.684 -13.06,12.75 c 16.47,4.968 37.62,14.296 52.23,27.976 l 4.97,-21.762 c -14.93,-10.257 -27.36,-14.609 -44.14,-18.964 z m 9.32,-44.454 c -17.72,0 -36.68,-13.988 -40.41,-33.574 h 70.88 c 0.31,1.239 0.31,2.485 0.31,3.731 0,13.988 -12.13,29.843 -30.78,29.843 z m 58.45,-40.726 -15.86,-15.856 h -84.86 c 0.92,-17.406 17.09,-41.968 50.04,-41.968 18.03,0 32.03,4.976 45.08,14.3 l -7.15,-30.156 c -9.95,-5.281 -22.69,-9.011 -41.66,-9.011 -40.1,0 -75.54,29.843 -75.54,73.675 0,47.875 37.3,73.989 69.95,73.989 38.86,0 60.93,-27.356 60.93,-53.469 0,-4.352 -0.32,-8.395 -0.93,-11.504"/><path id="path124" style="fill:#ffffff;fill-opacity:1;fill-rule:nonzero;stroke:none" d="m 3017.65,715.895 -27.98,-2.489 c -16.78,-1.554 -24.25,-12.433 -24.25,-22.691 0,-9.953 8.39,-18.965 19.58,-18.965 14.93,0 32.65,13.988 32.65,31.707 z m 26.11,-68.082 c -9.63,2.171 -17.41,9.328 -20.51,18.027 -9.95,-13.059 -24.25,-18.027 -39.49,-18.027 -27.97,0 -45.39,20.515 -45.39,43.207 0,27.359 22.39,42.906 46.32,45.078 l 32.96,3.113 v 9.012 c 0,12.75 -7.46,23.007 -27.36,23.007 -13.99,0 -28.6,-4.351 -38.86,-11.191 l -5.6,23.316 c 12.75,8.395 28.92,12.122 46.02,12.122 31.4,0 54.09,-17.719 54.09,-50.985 v -56.89 c 0,-12.743 6.84,-20.204 15.85,-21.762 l -18.03,-18.027"/><path id="path126" style="fill:#ffffff;fill-opacity:1;fill-rule:nonzero;stroke:none" d="m 3166.25,769.363 h -44.77 V 691.02 c 0,-11.5 9.33,-17.719 20.83,-17.719 5.9,0 11.19,0.625 15.54,2.176 l -5.6,-25.18 c -3.1,-0.934 -7.15,-1.242 -12.74,-1.242 -25.49,0 -46.01,14.922 -46.01,42.902 v 77.406 h -27.67 v 22.7 h 27.67 v 28.597 l 27.98,14.61 v -43.207 h 49.74 l -4.97,-22.7"/><path id="path128" style="fill:#ffffff;fill-opacity:1;fill-rule:nonzero;stroke:none" d="m 3263.55,651.23 h 30.1602 V 849.57 H 3263.55 Z"/><path id="path130" style="fill:#ffffff;fill-opacity:1;fill-rule:nonzero;stroke:none" d="m 3426.74,651.23 v 90.465 c 0,14.614 -9.01,29.535 -32.63,29.535 -22.7,0 -33.89,-14.921 -33.89,-29.535 V 651.23 h -28.29 v 140.833 h 24.87 l 1.24,-13.993 c 10.88,11.813 21.45,17.407 43.53,17.407 30.77,0 53.46,-19.582 53.46,-50.985 V 651.23 h -28.29"/><path id="path132" style="fill:#ffffff;fill-opacity:1;fill-rule:nonzero;stroke:none" d="m 3571.93,769.363 h -44.77 V 691.02 c 0,-11.5 9.33,-17.719 20.83,-17.719 5.9,0 11.19,0.625 15.54,2.176 l -5.6,-25.18 c -3.1,-0.934 -7.14,-1.242 -12.74,-1.242 -25.49,0 -46.01,14.922 -46.01,42.902 v 77.406 h -27.67 v 22.7 h 27.67 v 28.597 l 27.98,14.61 v -43.207 h 49.74 l -4.97,-22.7"/><path id="path134" style="fill:#ffffff;fill-opacity:1;fill-rule:nonzero;stroke:none" d="m 3654.3,771.23 c -17.72,0 -36.68,-13.988 -40.41,-33.574 h 70.88 c 0.31,1.239 0.31,2.485 0.31,3.731 0,13.988 -12.13,29.843 -30.78,29.843 z m 58.45,-40.726 -15.86,-15.856 h -84.86 c 0.92,-17.406 17.09,-41.968 50.05,-41.968 18.02,0 32.02,4.976 45.07,14.3 L 3700,656.824 c -9.95,-5.281 -22.69,-9.011 -41.66,-9.011 -40.1,0 -75.54,29.843 -75.54,73.675 0,47.875 37.3,73.989 69.95,73.989 38.86,0 60.93,-27.356 60.93,-53.469 0,-4.352 -0.32,-8.395 -0.93,-11.504"/><path id="path136" style="fill:#ffffff;fill-opacity:1;fill-rule:nonzero;stroke:none" d="m 3817.83,769.984 c -22.7,0 -50.05,-12.125 -50.05,-52.226 V 651.23 h -28.29 v 140.833 h 26.74 l 1.24,-22.079 c 7.46,17.414 26.73,23.942 47.88,23.942 l 5.28,-23.942 c -1.24,0 -1.87,0 -2.8,0"/><path id="path138" style="fill:#ffffff;fill-opacity:1;fill-rule:nonzero;stroke:none" d="m 3937.2,651.23 v 90.465 c 0,14.614 -9.01,29.535 -32.63,29.535 -22.7,0 -33.89,-14.921 -33.89,-29.535 V 651.23 h -28.29 v 140.833 h 24.87 l 1.24,-13.993 c 10.88,11.813 21.45,17.407 43.53,17.407 30.77,0 53.46,-19.582 53.46,-50.985 V 651.23 h -28.29"/><path id="path140" style="fill:#ffffff;fill-opacity:1;fill-rule:nonzero;stroke:none" d="m 4066.53,715.895 -27.98,-2.489 c -16.79,-1.554 -24.25,-12.433 -24.25,-22.691 0,-9.953 8.39,-18.965 19.58,-18.965 14.92,0 32.65,13.988 32.65,31.707 z m 26.11,-68.082 c -9.64,2.171 -17.41,9.328 -20.52,18.027 -9.95,-13.059 -24.24,-18.027 -39.48,-18.027 -27.98,0 -45.39,20.515 -45.39,43.207 0,27.359 22.38,42.906 46.32,45.078 l 32.96,3.113 v 9.012 c 0,12.75 -7.46,23.007 -27.36,23.007 -13.99,0 -28.6,-4.351 -38.86,-11.191 l -5.6,23.316 c 12.75,8.395 28.92,12.122 46.02,12.122 31.39,0 54.09,-17.719 54.09,-50.985 v -56.89 c 0,-12.743 6.84,-20.204 15.85,-21.762 l -18.03,-18.027"/><path id="path142" style="fill:#ffffff;fill-opacity:1;fill-rule:nonzero;stroke:none" d="m 4215.12,769.363 h -44.76 V 691.02 c 0,-11.5 9.32,-17.719 20.83,-17.719 5.9,0 11.19,0.625 15.53,2.176 l -5.59,-25.18 c -3.11,-0.934 -7.15,-1.242 -12.75,-1.242 -25.48,0 -46,14.922 -46,42.902 v 77.406 h -27.67 v 22.7 h 27.67 v 28.597 l 27.98,14.61 v -43.207 h 49.73 l -4.97,-22.7"/><path id="path144" style="fill:#ffffff;fill-opacity:1;fill-rule:nonzero;stroke:none" d="m 4247.14,651.23 v 140.833 h 28.6 V 651.23 Z m 14.3,167.875 c -5.6,0 -17.1,11.5 -17.1,17.094 0,5.91 11.5,17.414 17.1,17.414 5.91,0 17.41,-11.504 17.41,-17.414 0,-5.594 -11.5,-17.094 -17.41,-17.094"/><path id="path146" style="fill:#ffffff;fill-opacity:1;fill-rule:nonzero;stroke:none" d="m 4378.33,770.609 c -24.88,0 -46.32,-19.589 -46.32,-49.121 0,-29.222 21.44,-48.808 46.32,-48.808 24.56,0 46.01,19.586 46.01,48.808 0,29.532 -21.45,49.121 -46.01,49.121 z m 0,-122.796 c -41.97,0 -74.93,30.152 -74.93,73.675 0,43.832 32.96,73.989 74.93,73.989 41.97,0 74.6,-30.157 74.6,-73.989 0,-43.523 -32.63,-73.675 -74.6,-73.675"/><path id="path148" style="fill:#ffffff;fill-opacity:1;fill-rule:nonzero;stroke:none" d="m 4568.58,651.23 v 90.465 c 0,14.614 -9.01,29.535 -32.64,29.535 -22.69,0 -33.88,-14.921 -33.88,-29.535 V 651.23 h -28.3 v 140.833 h 24.88 l 1.24,-13.993 c 10.88,11.813 21.44,17.407 43.52,17.407 30.77,0 53.47,-19.582 53.47,-50.985 V 651.23 h -28.29"/><path id="path150" style="fill:#ffffff;fill-opacity:1;fill-rule:nonzero;stroke:none" d="m 4700.71,715.895 -27.98,-2.489 c -16.79,-1.554 -24.25,-12.433 -24.25,-22.691 0,-9.953 8.39,-18.965 19.58,-18.965 14.92,0 32.65,13.988 32.65,31.707 z m 26.11,-68.082 c -9.64,2.171 -17.41,9.328 -20.52,18.027 -9.95,-13.059 -24.24,-18.027 -39.48,-18.027 -27.98,0 -45.39,20.515 -45.39,43.207 0,27.359 22.38,42.906 46.32,45.078 l 32.96,3.113 v 9.012 c 0,12.75 -7.46,23.007 -27.37,23.007 -13.98,0 -28.59,-4.351 -38.85,-11.191 l -5.6,23.316 c 12.75,8.395 28.92,12.122 46.02,12.122 31.39,0 54.09,-17.719 54.09,-50.985 v -56.89 c 0,-12.743 6.83,-20.204 15.85,-21.762 l -18.03,-18.027"/><path id="path152" style="fill:#ffffff;fill-opacity:1;fill-rule:nonzero;stroke:none" d="m 4800.82,645.637 c -9.33,2.484 -27.98,11.808 -27.98,38.859 v 188.082 h 28.28 V 688.227 c 0,-13.059 10.26,-21.762 18.96,-23.321 l -19.26,-19.269"/><path id="path154" style="fill:#ffffff;fill-opacity:1;fill-rule:nonzero;stroke:none" d="m 1661.88,388.84 h -28.28 v -69.641 h 28.28 c 20.83,0 40.42,10.582 40.42,34.832 0,23.617 -19.59,34.809 -40.42,34.809 z m -7.76,77.726 H 1633.6 V 414.34 h 20.52 c 16.16,0 30.15,7.461 30.15,25.801 0,18.652 -13.99,26.425 -30.15,26.425 z m 13.99,-172.847 h -64.36 v 198.336 h 55.34 c 26.42,0 55.65,-17.098 55.65,-51.914 0,-14.61 -6.84,-29.844 -18.35,-34.825 18.35,-5.285 36.69,-25.796 36.69,-51.285 0,-41.043 -34.2,-60.312 -64.97,-60.312"/><path id="path156" style="fill:#ffffff;fill-opacity:1;fill-rule:nonzero;stroke:none" d="m 1831.32,358.371 -27.98,-2.48 c -16.79,-1.551 -24.25,-12.442 -24.25,-22.692 0,-9.949 8.4,-18.969 19.59,-18.969 14.92,0 32.64,14 32.64,31.711 z m 26.11,-68.07 c -9.64,2.179 -17.41,9.32 -20.52,18.027 -9.95,-13.058 -24.24,-18.027 -39.48,-18.027 -27.98,0 -45.39,20.519 -45.39,43.211 0,27.347 22.38,42.898 46.32,45.078 l 32.96,3.101 v 9.02 c 0,12.738 -7.46,23.004 -27.36,23.004 -13.99,0 -28.6,-4.356 -38.86,-11.195 l -5.6,23.316 c 12.75,8.398 28.92,12.129 46.01,12.129 31.4,0 54.09,-17.727 54.09,-50.985 v -56.89 c 0,-12.75 6.85,-20.211 15.86,-21.762 l -18.03,-18.027"/><path id="path158" style="fill:#ffffff;fill-opacity:1;fill-rule:nonzero;stroke:none" d="m 2008.2,402.52 c -12.74,8.089 -24.24,10.57 -37.92,10.57 -25.81,0 -49.74,-18.649 -49.74,-49.121 0,-30.149 24.56,-48.797 50.36,-48.797 13.06,0 24.56,2.476 40.41,9.937 l -5.9,-27.66 c -10.26,-4.668 -23.01,-7.148 -37,-7.148 -38.55,0 -76.48,27.66 -76.48,73.668 0,46.328 37.93,73.996 76.48,73.996 18.66,0 33.26,-4.043 45.08,-10.567 l -5.29,-24.878"/><path id="path160" style="fill:#ffffff;fill-opacity:1;fill-rule:nonzero;stroke:none" d="m 2131.62,293.719 v 90.461 c 0,14.609 -9.02,29.535 -32.64,29.535 -22.7,0 -33.89,-14.926 -33.89,-29.535 v -90.461 h -28.29 v 221.344 h 28.29 c 0,0 0,-92.645 0,-92.02 10.26,9.949 20.83,14.922 41.35,14.922 30.78,0 53.47,-19.59 53.47,-50.985 v -93.261 h -28.29"/><path id="path162" style="fill:#ffffff;fill-opacity:1;fill-rule:nonzero;stroke:none" d="m 2200.32,293.719 v 140.828 h 28.61 V 293.719 Z m 14.3,167.867 c -5.59,0 -17.1,11.504 -17.1,17.102 0,5.906 11.51,17.41 17.1,17.41 5.91,0 17.41,-11.504 17.41,-17.41 0,-5.598 -11.5,-17.102 -17.41,-17.102"/><path id="path164" style="fill:#ffffff;fill-opacity:1;fill-rule:nonzero;stroke:none" d="m 2303.53,288.121 c -9.33,2.488 -27.98,11.82 -27.98,38.859 v 188.083 h 28.29 V 330.711 c 0,-13.063 10.26,-21.762 18.97,-23.313 l -19.28,-19.277"/><path id="path166" style="fill:#ffffff;fill-opacity:1;fill-rule:nonzero;stroke:none" d="m 2385.29,288.121 c -9.33,2.488 -27.98,11.82 -27.98,38.859 v 188.083 h 28.29 V 330.711 c 0,-13.063 10.26,-21.762 18.97,-23.313 l -19.28,-19.277"/><path id="path168" style="fill:#ffffff;fill-opacity:1;fill-rule:nonzero;stroke:none" d="m 2498.13,413.715 c -17.71,0 -36.68,-13.996 -40.41,-33.574 h 70.88 c 0.31,1.238 0.31,2.488 0.31,3.73 0,13.988 -12.13,29.844 -30.78,29.844 z m 58.46,-40.727 -15.86,-15.859 h -84.88 c 0.93,-17.41 17.1,-41.957 50.05,-41.957 18.03,0 32.02,4.969 45.08,14.297 l -7.15,-30.16 c -9.94,-5.278 -22.69,-9.008 -41.66,-9.008 -40.09,0 -75.54,29.84 -75.54,73.668 0,47.883 37.31,73.996 69.96,73.996 38.84,0 60.92,-27.356 60.92,-53.465 0,-4.359 -0.31,-8.398 -0.92,-11.512"/><path id="path170" style="fill:#ffffff;fill-opacity:1;fill-rule:nonzero;stroke:none" d="m 2666.94,412.477 c -22.7,0 -50.05,-12.125 -50.05,-52.239 v -66.519 h -28.29 v 140.828 h 26.74 l 1.24,-22.07 c 7.46,17.402 26.74,23.933 47.88,23.933 l 5.28,-23.933 c -1.24,0 -1.86,0 -2.8,0"/><path id="path172" style="fill:#ffffff;fill-opacity:1;fill-rule:nonzero;stroke:none" d="m 2758.33,358.371 -27.97,-2.48 c -16.79,-1.551 -24.25,-12.442 -24.25,-22.692 0,-9.949 8.39,-18.969 19.58,-18.969 14.92,0 32.64,14 32.64,31.711 z m 26.12,-68.07 c -9.64,2.179 -17.41,9.32 -20.52,18.027 -9.95,-13.058 -24.25,-18.027 -39.48,-18.027 -27.98,0 -45.39,20.519 -45.39,43.211 0,27.347 22.38,42.898 46.32,45.078 l 32.95,3.101 v 9.02 c 0,12.738 -7.46,23.004 -27.36,23.004 -13.98,0 -28.59,-4.356 -38.86,-11.195 l -5.59,23.316 c 12.74,8.398 28.91,12.129 46.01,12.129 31.4,0 54.1,-17.727 54.1,-50.985 v -56.89 c 0,-12.75 6.83,-20.211 15.85,-21.762 l -18.03,-18.027"/><path id="path174" style="fill:#ffffff;fill-opacity:1;fill-rule:nonzero;stroke:none" d="m 2906.93,411.852 h -44.77 v -78.34 c 0,-11.5 9.33,-17.723 20.83,-17.723 5.9,0 11.19,0.621 15.54,2.172 l -5.6,-25.18 c -3.1,-0.929 -7.14,-1.242 -12.74,-1.242 -25.49,0 -46.01,14.922 -46.01,42.902 v 77.411 h -27.67 v 22.695 h 27.67 v 28.601 l 27.98,14.61 v -43.211 h 49.74 l -4.97,-22.695"/><path id="path176" style="fill:#ffffff;fill-opacity:1;fill-rule:nonzero;stroke:none" d="m 2990.54,413.09 c -24.87,0 -46.32,-19.578 -46.32,-49.121 0,-29.219 21.45,-48.797 46.32,-48.797 24.56,0 46.02,19.578 46.02,48.797 0,29.543 -21.46,49.121 -46.02,49.121 z m 0,-122.789 c -41.96,0 -74.92,30.148 -74.92,73.668 0,43.84 32.96,73.996 74.92,73.996 41.97,0 74.61,-30.156 74.61,-73.996 0,-43.52 -32.64,-73.668 -74.61,-73.668"/><path id="path178" style="fill:#ffffff;fill-opacity:1;fill-rule:nonzero;stroke:none" d="m 3172.41,293.719 h 30.1484 V 492.055 H 3172.41 Z"/><path id="path180" style="fill:#ffffff;fill-opacity:1;fill-rule:nonzero;stroke:none" d="m 3337.79,293.719 v 90.461 c 0,14.609 -9.02,29.535 -32.64,29.535 -22.69,0 -33.89,-14.926 -33.89,-29.535 v -90.461 h -28.29 v 140.828 h 24.88 l 1.24,-13.996 c 10.88,11.816 21.44,17.414 43.52,17.414 30.77,0 53.47,-19.59 53.47,-50.985 v -93.261 h -28.29"/><path id="path182" style="fill:#ffffff;fill-opacity:1;fill-rule:nonzero;stroke:none" d="m 3480.48,411.852 h -44.76 v -78.34 c 0,-11.5 9.32,-17.723 20.83,-17.723 5.9,0 11.19,0.621 15.53,2.172 l -5.59,-25.18 c -3.11,-0.929 -7.15,-1.242 -12.74,-1.242 -25.49,0 -46.01,14.922 -46.01,42.902 v 77.411 h -27.68 v 22.695 h 27.68 v 28.601 l 27.98,14.61 v -43.211 h 49.73 l -4.97,-22.695"/><path id="path184" style="fill:#ffffff;fill-opacity:1;fill-rule:nonzero;stroke:none" d="m 3563.79,413.715 c -17.72,0 -36.68,-13.996 -40.41,-33.574 h 70.88 c 0.32,1.238 0.32,2.488 0.32,3.73 0,13.988 -12.13,29.844 -30.79,29.844 z m 58.45,-40.727 -15.86,-15.859 h -84.86 c 0.93,-17.41 17.09,-41.957 50.05,-41.957 18.02,0 32.02,4.969 45.08,14.297 l -7.15,-30.16 c -9.95,-5.278 -22.7,-9.008 -41.66,-9.008 -40.11,0 -75.55,29.84 -75.55,73.668 0,47.883 37.3,73.996 69.95,73.996 38.86,0 60.93,-27.356 60.93,-53.465 0,-4.359 -0.31,-8.398 -0.93,-11.512"/><path id="path186" style="fill:#ffffff;fill-opacity:1;fill-rule:nonzero;stroke:none" d="m 3731.04,412.477 c -22.7,0 -50.05,-12.125 -50.05,-52.239 v -66.519 h -28.29 v 140.828 h 26.74 l 1.24,-22.07 c 7.46,17.402 26.74,23.933 47.88,23.933 l 5.28,-23.933 c -1.24,0 -1.86,0 -2.8,0"/><path id="path188" style="fill:#ffffff;fill-opacity:1;fill-rule:nonzero;stroke:none" d="m 3848.86,293.719 v 90.461 c 0,14.609 -9.01,29.535 -32.63,29.535 -22.7,0 -33.89,-14.926 -33.89,-29.535 v -90.461 h -28.29 v 140.828 h 24.87 l 1.24,-13.996 c 10.88,11.816 21.45,17.414 43.53,17.414 30.77,0 53.46,-19.59 53.46,-50.985 v -93.261 h -28.29"/><path id="path190" style="fill:#ffffff;fill-opacity:1;fill-rule:nonzero;stroke:none" d="m 3982.86,358.371 -27.98,-2.48 c -16.79,-1.551 -24.25,-12.442 -24.25,-22.692 0,-9.949 8.39,-18.969 19.58,-18.969 14.92,0 32.65,14 32.65,31.711 z m 26.11,-68.07 c -9.64,2.179 -17.41,9.32 -20.52,18.027 -9.95,-13.058 -24.25,-18.027 -39.48,-18.027 -27.98,0 -45.39,20.519 -45.39,43.211 0,27.347 22.38,42.898 46.32,45.078 l 32.96,3.101 v 9.02 c 0,12.738 -7.46,23.004 -27.37,23.004 -13.98,0 -28.59,-4.356 -38.85,-11.195 l -5.6,23.316 c 12.74,8.398 28.92,12.129 46.02,12.129 31.39,0 54.09,-17.727 54.09,-50.985 v -56.89 c 0,-12.75 6.83,-20.211 15.85,-21.762 l -18.03,-18.027"/><path id="path192" style="fill:#ffffff;fill-opacity:1;fill-rule:nonzero;stroke:none" d="m 4160.05,402.52 c -12.74,8.089 -24.24,10.57 -37.93,10.57 -25.8,0 -49.73,-18.649 -49.73,-49.121 0,-30.149 24.56,-48.797 50.36,-48.797 13.06,0 24.56,2.476 40.41,9.937 l -5.9,-27.66 c -10.26,-4.668 -23.01,-7.148 -37,-7.148 -38.55,0 -76.48,27.66 -76.48,73.668 0,46.328 37.93,73.996 76.48,73.996 18.65,0 33.27,-4.043 45.08,-10.567 l -5.29,-24.878"/><path id="path194" style="fill:#ffffff;fill-opacity:1;fill-rule:nonzero;stroke:none" d="m 4197.06,293.719 v 140.828 h 28.59 V 293.719 Z m 14.29,167.867 c -5.59,0 -17.1,11.504 -17.1,17.102 0,5.906 11.51,17.41 17.1,17.41 5.91,0 17.41,-11.504 17.41,-17.41 0,-5.598 -11.5,-17.102 -17.41,-17.102"/><path id="path196" style="fill:#ffffff;fill-opacity:1;fill-rule:nonzero;stroke:none" d="m 4330.1,413.09 c -24.87,0 -46.32,-19.578 -46.32,-49.121 0,-29.219 21.45,-48.797 46.32,-48.797 24.56,0 46.02,19.578 46.02,48.797 0,29.543 -21.46,49.121 -46.02,49.121 z m 0,-122.789 c -41.96,0 -74.92,30.148 -74.92,73.668 0,43.84 32.96,73.996 74.92,73.996 41.98,0 74.61,-30.156 74.61,-73.996 0,-43.52 -32.63,-73.668 -74.61,-73.668"/><path id="path198" style="fill:#ffffff;fill-opacity:1;fill-rule:nonzero;stroke:none" d="m 4523.15,293.719 v 90.461 c 0,14.609 -9.01,29.535 -32.64,29.535 -22.69,0 -33.88,-14.926 -33.88,-29.535 v -90.461 h -28.3 v 140.828 h 24.88 l 1.24,-13.996 c 10.88,11.816 21.44,17.414 43.52,17.414 30.78,0 53.47,-19.59 53.47,-50.985 v -93.261 h -28.29"/><path id="path200" style="fill:#ffffff;fill-opacity:1;fill-rule:nonzero;stroke:none" d="m 4657.14,358.371 -27.97,-2.48 c -16.79,-1.551 -24.25,-12.442 -24.25,-22.692 0,-9.949 8.39,-18.969 19.58,-18.969 14.92,0 32.64,14 32.64,31.711 z m 26.12,-68.07 c -9.64,2.179 -17.42,9.32 -20.52,18.027 -9.95,-13.058 -24.25,-18.027 -39.48,-18.027 -27.98,0 -45.39,20.519 -45.39,43.211 0,27.347 22.38,42.898 46.31,45.078 l 32.96,3.101 v 9.02 c 0,12.738 -7.46,23.004 -27.36,23.004 -13.98,0 -28.59,-4.356 -38.86,-11.195 l -5.59,23.316 c 12.74,8.398 28.91,12.129 46.01,12.129 31.4,0 54.09,-17.727 54.09,-50.985 v -56.89 c 0,-12.75 6.84,-20.211 15.85,-21.762 l -18.02,-18.027"/><path id="path202" style="fill:#ffffff;fill-opacity:1;fill-rule:nonzero;stroke:none" d="m 4758.49,288.121 c -9.32,2.488 -27.98,11.82 -27.98,38.859 v 188.083 h 28.28 V 330.711 c 0,-13.063 10.27,-21.762 18.97,-23.313 l -19.27,-19.277"/><path id="path204" style="fill:#ffffff;fill-opacity:1;fill-rule:nonzero;stroke:none" d="m 4995.33,1220.11 c 7.51,0 14.9,0.23 14.9,8.67 0,6.93 -5.78,8.54 -11.78,8.54 h -11.21 v -17.21 z m -8.09,-27.27 h -6.12 v 49.69 h 19.05 c 11.21,0 16.18,-4.86 16.18,-13.75 0,-8.79 -5.77,-12.72 -12.48,-13.87 l 14.8,-22.07 h -7.16 l -13.99,22.07 h -10.28 z m -26.82,24.85 c 0,-20.57 15.49,-36.87 36.29,-36.87 20.79,0 36.28,16.3 36.28,36.87 0,20.56 -15.49,36.85 -36.28,36.85 -20.8,0 -36.29,-16.29 -36.29,-36.85 z m 79.27,0 c 0,-24.15 -18.71,-42.99 -42.98,-42.99 -24.26,0 -42.98,18.84 -42.98,42.99 0,24.13 18.72,42.97 42.98,42.97 24.27,0 42.98,-18.84 42.98,-42.97"/></g></g></g></g></svg>